<svg width="20" height="20" viewBox="0 0 20 20" fill="none" xmlns="http://www.w3.org/2000/svg">
<mask id="mask0_2_21" style="mask-type:luminance" maskUnits="userSpaceOnUse" x="0" y="0" width="20" height="20">
<path d="M20 0H0V20H20V0Z" fill="white"/>
</mask>
<g mask="url(#mask0_2_21)">
<path d="M17.639 12.1766C18.9408 12.1766 20 11.1175 20 9.81563V8.68794H18.5037C18.0441 8.68794 17.5997 8.82219 17.2189 9.07038C17.1764 8.83617 17.1232 8.60478 17.0585 8.37717L17.5099 8.11741C18.0561 7.80211 18.4467 7.29299 18.6099 6.6838C18.7732 6.07464 18.6894 5.43838 18.3741 4.89223L17.8102 3.91563L16.5145 4.66376C16.1164 4.89356 15.7988 5.23202 15.5936 5.63732C15.4309 5.44615 15.2575 5.2628 15.0743 5.08769L15.2919 4.71095C15.6072 4.1648 15.6909 3.52853 15.5277 2.91938C15.3645 2.31022 14.9738 1.8011 14.4277 1.48576L13.4511 0.921914L12.7029 2.21768C12.3876 2.76383 12.3039 3.4001 12.4671 4.00925C12.6303 4.61841 13.021 5.12753 13.5671 5.44287L13.9893 5.68661C15.3731 6.85973 16.1661 8.57021 16.1661 10.3878C16.1661 13.7877 13.4001 16.5538 10.0001 16.5538C6.60021 16.5538 3.83419 13.7877 3.83419 10.3878C3.83419 8.57025 4.6272 6.85973 6.01098 5.68661L6.43315 5.44287C6.9793 5.12757 7.36995 4.61841 7.53318 4.00925C7.69638 3.4001 7.61259 2.76383 7.29729 2.21768L6.5492 0.921875L5.57259 1.48576C5.02644 1.80106 4.6358 2.31018 4.47256 2.91938C4.30932 3.52853 4.39311 4.1648 4.70841 4.71095L4.92594 5.08769C4.74267 5.26284 4.56927 5.44627 4.40655 5.63751C4.20128 5.2321 3.88368 4.89356 3.48557 4.66376L2.18976 3.91563L1.62587 4.89223C1.31057 5.43838 1.22679 6.07464 1.39002 6.6838C1.55326 7.29295 1.94391 7.80207 2.49076 8.1178L2.94168 8.37729C2.87704 8.60493 2.82376 8.83633 2.78126 9.07054C2.40045 8.82223 1.9559 8.68794 1.49627 8.68794H0V9.81563C0 11.1175 1.05914 12.1766 2.36178 12.1766L2.88305 12.1758C2.94129 12.4076 3.01066 12.635 3.09043 12.8576C2.63595 12.8323 2.18359 12.9378 1.78559 13.1676L0.489746 13.9157L1.05367 14.8923C1.36897 15.4385 1.87809 15.8291 2.48729 15.9924C2.69064 16.0469 2.89692 16.0738 3.10199 16.0738C3.51119 16.0738 3.91524 15.9664 4.27952 15.7561L4.73439 15.4926C4.89981 15.6632 5.07343 15.8258 5.2546 15.9798C4.84794 16.185 4.50834 16.5031 4.27792 16.9022L3.52982 18.198L4.50643 18.7618C4.87024 18.9719 5.27393 19.0792 5.68306 19.0792C5.88813 19.0792 6.09461 19.0522 6.298 18.9977C6.90715 18.8345 7.41627 18.4438 7.732 17.897L7.99145 17.4462C8.63005 17.6282 9.30389 17.7257 10.0001 17.7257C10.6962 17.7257 11.37 17.6282 12.0085 17.4463L12.2683 17.8977C12.5836 18.4438 13.0927 18.8345 13.7019 18.9977C13.9053 19.0523 14.1117 19.0792 14.3168 19.0792C14.7259 19.0792 15.1297 18.9719 15.4935 18.7619L16.4701 18.198L15.722 16.9022C15.4916 16.5033 15.1521 16.1851 14.7454 15.9799C14.9266 15.8259 15.1003 15.6633 15.2657 15.4927L15.7211 15.7566C16.0849 15.9666 16.4886 16.0739 16.8978 16.0739C17.1028 16.0739 17.3093 16.0469 17.5127 15.9925C18.1218 15.8292 18.631 15.4386 18.9463 14.8924L19.5102 13.9158L18.2143 13.1677C17.8164 12.9379 17.3642 12.8324 16.9098 12.8576C16.9895 12.6351 17.0589 12.4077 17.1171 12.1759L17.639 12.1766Z" fill="#E0B84E"/>
<path d="M7.701 11.4672L7.16325 14.6244L9.99974 13.1373L12.8362 14.6244L12.2984 11.4672L14.5893 9.22909L11.4204 8.76493L9.99974 5.89453L8.57905 8.76489L5.41016 9.22905L7.701 11.4672Z" fill="#E0B84E"/>
</g>
</svg>
