<svg xmlns="http://www.w3.org/2000/svg" viewBox="0 0 1348 204" width="1348.000000pt" height="204.000000pt"><g xmlns="http://www.w3.org/2000/svg" transform="matrix(0 1 -1 0 1348 -0)"><g transform="translate(0.000000,1348.000000) scale(0.100000,-0.100000) " fill="#000000" stroke="none"><path d="M435 13451 c-228 -56 -376 -200 -420 -408 -18 -85 -18 -140 -1 -224 42 -196 196 -348 411 -405 162 -42 372 -24 520 45 148 69 246 185 285 335 78 308 -96 581 -421 660 -89 22 -281 20 -374 -3z m468 -200 c153 -41 269 -117 311 -206 23 -49 31 -130 17 -182 -51 -189 -374 -311 -723 -274 -245 27 -411 109 -473 236 -28 56 -26 165 2 220 47 90 169 170 311 205 114 28 122 28 307 25 134 -2 187 -7 248 -24z" /><path d="M22 12020 c0 -151 3 -247 8 -235 5 11 9 34 9 52 1 18 11 44 25 60 l24 28 514 3 c282 2 528 0 546 -3 40 -7 59 -35 71 -105 6 -40 9 14 9 200 0 186 -3 240 -9 200 -12 -70 -31 -98 -71 -105 -18 -3 -264 -5 -545 -3 -589 3 -544 -5 -568 104 -12 54 -13 35 -13 -196z" /><path d="M1726 11837 c-63 -36 -99 -88 -104 -152 -11 -131 78 -225 212 -225 77 1 163 57 192 127 17 39 18 111 3 150 -14 38 -56 81 -101 104 -54 27 -151 26 -202 -4z m198 -67 c85 -19 124 -80 93 -146 -25 -52 -80 -74 -188 -74 -127 0 -184 29 -196 102 -14 90 141 153 291 118z" /><path d="M485 11640 c-127 -25 -241 -87 -323 -175 -122 -131 -142 -221 -141 -640 1 -269 2 -294 14 -241 24 109 -23 101 580 104 590 3 576 4 594 -66 5 -20 12 -50 14 -67 3 -16 4 123 3 310 -2 319 -4 344 -24 406 -60 181 -210 314 -413 363 -69 17 -233 20 -304 6z m385 -210 c159 -42 267 -115 316 -216 23 -48 28 -71 32 -172 4 -107 3 -119 -16 -142 l-20 -25 -544 -2 c-425 -2 -548 0 -568 10 -25 12 -25 15 -28 147 -2 126 -1 137 23 186 42 85 145 164 265 202 145 47 385 52 540 12z" /><path d="M1925 11410 c3 -5 17 -10 29 -10 48 0 67 -29 73 -113 l6 -77 -107 0 -106 0 0 31 c0 45 15 66 56 73 57 11 31 20 -62 21 -89 2 -118 -8 -59 -19 39 -8 55 -30 55 -75 l0 -31 -90 0 -90 0 0 54 c0 71 12 101 47 114 72 27 70 25 39 30 -16 2 -44 1 -63 -3 l-33 -6 1 -162 c1 -89 4 -151 8 -137 l7 25 194 0 194 0 7 -25 c4 -14 7 53 8 148 l1 172 -61 0 c-37 0 -58 -4 -54 -10z" /><path d="M1729 11010 c-47 -25 -86 -71 -99 -118 -5 -20 -9 -91 -9 -157 1 -66 4 -111 6 -100 3 11 10 23 17 27 6 4 90 8 186 8 96 0 180 -4 186 -8 7 -4 14 -18 17 -32 3 -14 4 38 4 115 -2 159 -14 195 -81 249 -34 28 -46 31 -114 34 -61 2 -85 -2 -113 -18z m217 -86 c55 -27 76 -61 78 -125 l1 -54 -195 0 c-220 0 -208 -5 -195 81 8 53 48 97 102 112 55 16 164 8 209 -14z" /><path d="M1622 10485 c0 -51 3 -79 7 -65 l7 25 194 0 194 0 7 -25 c4 -14 7 14 7 65 0 72 -2 84 -10 62 l-10 -27 -191 2 -191 3 -7 25 c-4 14 -7 -14 -7 -65z" /><path d="M22 10255 c0 -169 1 -177 13 -131 8 28 22 61 33 75 36 50 64 52 497 49 l400 -3 56 -26 c69 -33 127 -89 160 -155 21 -42 24 -63 24 -149 0 -86 -3 -107 -24 -149 -32 -66 -85 -117 -157 -152 l-59 -29 -431 -3 -432 -3 -27 23 c-19 17 -31 41 -40 83 -12 55 -13 38 -13 -195 0 -231 1 -249 13 -196 23 108 -11 100 498 106 l442 5 67 33 c111 55 178 158 200 311 34 229 -71 436 -249 491 -61 19 -92 20 -454 20 -413 0 -431 2 -472 48 -11 11 -25 45 -32 74 -12 50 -13 41 -13 -127z" /><path d="M1623 10320 c0 -41 2 -63 4 -47 2 15 11 27 19 27 18 0 264 -93 264 -100 0 -5 -258 -100 -272 -100 -4 0 -9 17 -11 38 -2 20 -4 -12 -4 -73 0 -60 2 -98 4 -83 5 35 9 37 138 86 243 91 275 104 275 112 0 4 -35 20 -77 35 -173 62 -289 107 -310 120 -12 8 -24 25 -26 37 -2 13 -4 -11 -4 -52z" /><path d="M1901 9723 c-1 -56 3 -93 9 -93 6 0 10 11 10 24 0 32 12 38 54 31 88 -17 62 -147 -37 -184 -40 -16 -182 -14 -220 3 -53 23 -82 61 -82 111 0 54 32 92 92 108 60 16 43 27 -40 27 -62 -1 -70 -2 -54 -14 16 -12 16 -16 2 -49 -34 -81 -8 -192 56 -239 115 -85 276 -53 330 67 41 89 7 243 -51 237 -30 -3 -42 5 -57 38 -10 21 -12 11 -12 -67z" /><path d="M1623 9295 c0 -38 2 -58 4 -42 l4 27 142 0 142 0 -54 -38 c-29 -20 -94 -67 -145 -103 l-91 -65 -1 -70 c-1 -38 0 -57 3 -42 8 48 23 52 204 56 179 5 194 1 201 -41 2 -12 4 12 4 53 0 42 -2 62 -5 45 l-6 -30 -164 -3 c-161 -2 -164 -2 -140 16 13 10 80 58 149 107 144 101 171 125 164 136 -3 5 -95 9 -204 9 l-199 0 -4 28 c-2 15 -4 -4 -4 -43z" /><path d="M182 9157 c-161 -17 -182 -22 -175 -36 13 -25 15 -958 3 -981 -6 -11 -7 -20 -3 -20 4 0 87 -9 183 -20 96 -11 182 -19 190 -19 8 0 -29 16 -84 35 -105 37 -134 53 -179 93 -54 49 -71 96 -75 213 l-4 106 53 7 c30 3 281 5 559 3 384 -2 510 -6 527 -16 21 -12 37 -52 46 -117 2 -16 4 85 4 225 1 185 -2 240 -8 200 -11 -64 -31 -98 -62 -105 -12 -3 -267 -4 -567 -3 l-545 3 0 105 c0 97 2 109 29 158 44 79 100 116 246 163 100 32 99 32 -138 6z" /><path d="M2028 8908 c-3 -23 -4 -23 -200 -26 l-197 -2 -4 22 c-2 13 -4 -17 -4 -67 0 -49 2 -78 4 -62 l4 27 197 -2 196 -3 7 -25 c4 -14 7 14 8 68 1 87 -4 118 -11 70z" /><path d="M1780 8701 c-48 -10 -72 -24 -108 -65 -43 -49 -52 -92 -51 -231 1 -66 4 -109 8 -95 l7 25 194 0 194 0 7 -25 c4 -14 7 29 8 95 0 66 -4 137 -10 158 -11 43 -59 102 -98 121 -34 18 -107 26 -151 17z m170 -107 c53 -31 74 -67 75 -127 l0 -52 -195 0 c-220 0 -208 -5 -195 81 13 88 79 127 206 121 52 -2 87 -10 109 -23z" /><path d="M1755 8228 c-45 -16 -93 -55 -112 -91 -13 -25 -18 -63 -20 -177 -1 -80 1 -134 5 -120 l8 25 194 0 194 0 7 -25 c4 -14 7 34 8 106 1 121 -1 134 -25 183 -36 72 -86 104 -168 108 -33 1 -74 -2 -91 -9z m194 -97 c51 -27 73 -63 75 -125 l1 -51 -195 0 -195 0 0 52 c1 61 23 99 76 125 50 26 186 25 238 -1z" /><path d="M782 7982 c-115 -41 -176 -133 -247 -372 -66 -225 -123 -307 -229 -331 -86 -19 -154 0 -216 59 -75 73 -95 160 -65 277 37 143 158 252 340 306 l60 17 -60 0 c-33 0 -127 -5 -210 -11 l-150 -12 37 -22 c49 -29 49 -52 2 -174 -44 -115 -53 -204 -30 -302 29 -126 82 -199 174 -244 50 -24 68 -27 152 -27 108 1 147 14 210 70 58 53 85 107 146 290 77 235 105 281 189 320 89 42 184 29 257 -36 147 -129 122 -399 -50 -551 -57 -50 -168 -104 -253 -124 -62 -14 -59 -14 116 -9 99 2 206 7 238 10 l57 6 -32 22 c-45 30 -46 67 -8 191 70 226 39 431 -85 564 -84 89 -227 124 -343 83z" /><path d="M1920 7781 c0 -5 17 -11 39 -15 21 -3 44 -12 51 -21 6 -8 14 -50 17 -95 l6 -80 -102 0 c-114 0 -121 4 -105 68 7 30 15 37 42 43 63 13 45 19 -54 19 -68 0 -94 -3 -84 -10 8 -5 25 -10 37 -10 27 0 43 -27 43 -74 l0 -36 -90 0 -90 0 0 64 c0 76 22 112 75 122 48 9 45 28 -2 20 -21 -3 -48 -6 -60 -6 -23 0 -23 0 -22 -162 1 -90 4 -152 8 -138 l7 25 194 0 194 0 7 -25 c4 -14 7 53 8 148 l1 172 -60 0 c-33 0 -60 -4 -60 -9z" /><path d="M1622 7375 c0 -38 3 -60 5 -47 3 13 10 25 17 28 10 4 282 -89 294 -100 1 -2 -21 -12 -50 -24 -29 -11 -69 -27 -90 -36 -35 -15 -38 -15 -100 17 -51 26 -64 38 -69 62 -4 17 -7 -35 -7 -115 -1 -89 3 -137 8 -124 8 20 145 84 180 84 20 0 120 -43 120 -52 0 -7 -243 -104 -274 -110 -14 -2 -22 5 -27 22 -4 14 -7 -16 -7 -70 1 -52 3 -85 5 -72 6 30 19 37 230 123 101 41 181 78 180 84 -2 5 -45 28 -95 50 -51 22 -92 43 -92 46 0 4 43 24 95 45 52 22 93 43 92 49 -2 5 -92 44 -200 85 -167 64 -198 79 -206 100 -7 19 -9 9 -9 -45z m91 -196 c19 -11 18 -13 -24 -29 -24 -9 -47 -15 -51 -13 -9 5 -11 57 -2 66 6 6 39 -5 77 -24z" /><path d="M1220 7030 c0 -11 -7 -36 -15 -56 -11 -28 -27 -40 -77 -63 -58 -27 -819 -340 -1036 -426 -51 -21 -92 -39 -90 -40 2 -2 241 -98 533 -215 292 -117 548 -223 570 -236 55 -32 92 -72 109 -119 14 -38 15 -29 14 135 0 156 -1 169 -12 122 -25 -119 -77 -128 -281 -51 l-135 52 2 229 3 230 170 69 c94 37 180 68 192 69 27 0 40 -23 52 -92 6 -39 9 8 10 180 0 127 -1 232 -4 232 -3 0 -5 -9 -5 -20z m-440 -669 l0 -219 -275 110 c-152 61 -273 113 -270 116 6 6 526 210 538 211 4 1 7 -98 7 -218z" /><path d="M1920 6642 c0 -5 21 -15 48 -23 53 -16 59 -28 61 -131 l1 -58 -106 0 -107 0 6 46 c5 49 18 64 54 64 12 0 25 5 28 10 4 6 -28 10 -90 10 -62 0 -94 -4 -90 -10 3 -5 17 -10 30 -10 35 0 55 -26 55 -71 l0 -39 -90 0 -90 0 0 63 c0 76 16 102 70 118 22 7 40 16 40 22 0 5 -7 6 -16 3 -9 -3 -36 -6 -60 -6 l-44 0 1 -162 c1 -90 4 -154 6 -143 3 11 10 23 17 27 6 4 90 8 186 8 96 0 180 -4 186 -8 7 -4 14 -16 17 -27 2 -11 5 58 6 153 l1 172 -60 0 c-33 0 -60 -4 -60 -8z" /><path d="M1885 6250 c3 -5 13 -10 22 -10 30 0 86 -34 104 -64 39 -63 10 -133 -68 -168 -63 -28 -202 -23 -254 10 -87 53 -73 166 23 193 56 16 70 29 31 29 -16 0 -52 3 -79 6 -45 5 -47 4 -30 -10 18 -14 18 -17 2 -50 -37 -78 -11 -189 56 -239 147 -109 347 -12 348 168 0 32 -7 61 -20 82 -19 32 -19 32 0 38 43 14 16 25 -61 25 -51 0 -78 -4 -74 -10z" /><path d="M21 5850 c0 -163 7 -198 23 -109 8 47 38 73 81 72 33 -1 75 -21 333 -160 45 -25 82 -43 82 -40 0 3 -78 47 -172 98 -304 162 -310 166 -333 263 -12 47 -13 37 -14 -124z" /><path d="M1622 5765 c0 -51 3 -79 7 -65 l7 25 194 0 194 0 7 -25 c4 -14 7 14 7 65 0 72 -2 84 -10 62 l-10 -27 -191 2 -191 3 -7 25 c-4 14 -7 -14 -7 -65z" /><path d="M1220 5668 c0 -51 -19 -107 -40 -118 -11 -6 -115 -10 -257 -10 l-239 0 -67 36 c-37 19 -67 33 -67 30 0 -3 27 -19 60 -37 34 -18 57 -35 53 -39 -27 -24 -565 -320 -581 -320 -26 0 -33 11 -48 79 -11 50 -12 28 -12 -189 0 -224 1 -241 14 -201 25 80 23 78 484 344 l184 107 229 0 c227 0 228 0 252 -24 15 -15 26 -41 30 -72 4 -27 8 -53 10 -59 2 -5 4 106 4 248 1 141 -1 257 -4 257 -3 0 -5 -15 -5 -32z" /><path d="M1920 5641 c0 -5 17 -13 37 -18 49 -11 63 -39 63 -125 l0 -68 -194 0 -195 0 -4 28 c-2 15 -4 -16 -4 -68 0 -52 2 -83 4 -67 l4 27 200 0 200 0 -6 -37 c-4 -21 -9 -45 -11 -54 -3 -10 -103 -52 -302 -124 -255 -92 -336 -125 -311 -125 3 0 64 -21 135 -46 71 -25 200 -70 286 -99 187 -64 198 -69 198 -98 0 -12 5 -29 10 -37 7 -10 10 18 10 88 0 66 -4 101 -10 97 -5 -3 -10 -22 -10 -41 0 -40 -12 -43 -87 -18 -112 36 -103 24 -103 133 l0 96 87 27 c97 30 103 28 103 -34 0 -21 5 -38 10 -38 6 0 10 108 10 305 l0 305 -60 0 c-33 0 -60 -4 -60 -9z m-113 -737 c-4 -4 -236 72 -244 80 -4 4 20 14 162 64 l80 29 3 -85 c2 -46 1 -86 -1 -88z" /><path d="M1184 4879 c31 -37 33 -58 6 -92 -20 -25 -49 -41 -250 -134 -152 -71 -248 -163 -287 -275 l-18 -53 -3 35 c-6 64 -32 160 -56 209 -36 69 -67 103 -127 136 -44 24 -64 28 -123 28 -89 0 -150 -27 -206 -90 -84 -96 -100 -195 -99 -606 1 -272 2 -296 14 -238 21 109 -27 101 592 101 l534 0 24 -24 c15 -15 26 -41 30 -72 4 -27 8 -53 10 -59 2 -5 3 105 3 245 0 218 -2 247 -12 198 -6 -32 -18 -66 -28 -77 -23 -26 -99 -33 -348 -29 l-205 3 -3 40 c-2 22 -1 68 3 103 11 106 52 139 279 226 149 58 189 79 244 129 58 54 81 106 82 180 0 61 -9 87 -43 125 -31 34 -42 26 -13 -9z m-707 -363 c109 -55 143 -130 143 -314 l0 -124 -263 4 c-234 3 -266 5 -291 21 l-28 18 4 133 c3 126 4 135 30 172 81 115 272 158 405 90z" /><path d="M1782 4485 c0 -49 3 -69 7 -50 5 23 12 31 33 33 28 3 98 -22 98 -35 0 -16 -134 -127 -138 -115 -2 7 -15 26 -29 42 -18 22 -33 30 -58 30 -47 0 -75 -37 -75 -101 0 -96 80 -141 148 -84 l30 25 21 -35 c55 -94 159 -95 207 -3 21 40 18 127 -6 173 -19 37 -15 54 13 55 4 0 7 33 6 73 -1 72 -2 75 -13 25 -3 -15 -20 -37 -37 -49 l-31 -22 -42 22 c-24 11 -58 24 -76 27 -23 5 -36 15 -46 38 -12 29 -13 27 -12 -49z m222 -129 c9 -19 16 -47 16 -64 0 -84 -125 -130 -190 -70 -21 19 -21 21 -3 40 24 28 145 128 154 128 4 0 14 -15 23 -34z m-247 -37 c21 -18 15 -36 -20 -63 -41 -31 -68 -33 -92 -6 -22 24 -14 63 17 78 26 13 74 8 95 -9z" /><path d="M1640 3840 l0 -56 143 -63 c78 -35 145 -66 150 -70 4 -4 -59 -37 -140 -73 l-148 -67 -3 -58 c-2 -53 -1 -56 11 -33 l13 25 174 0 174 0 7 -25 c5 -16 7 0 8 45 1 63 -1 67 -12 45 -12 -25 -14 -25 -162 -27 l-150 -3 155 70 c85 39 158 74 163 79 4 4 -61 38 -145 75 -84 38 -157 72 -162 77 -12 11 236 11 274 0 14 -4 27 -17 31 -31 4 -15 7 10 8 60 1 75 -1 82 -12 60 l-13 -25 -169 0 -169 0 -13 25 c-12 23 -13 21 -13 -30z" /><path d="M540 3614 c-274 -49 -431 -174 -497 -395 -13 -44 -17 -118 -19 -394 -3 -301 -1 -333 10 -276 22 109 -26 101 595 101 l538 0 21 -22 c12 -14 24 -46 30 -83 7 -45 10 15 11 250 1 349 -5 400 -64 523 -62 131 -190 231 -350 274 -68 19 -225 31 -275 22z m355 -224 c148 -47 242 -115 291 -212 24 -47 28 -68 32 -174 7 -183 74 -164 -586 -164 -487 0 -550 2 -571 16 -22 16 -22 20 -19 153 4 158 14 188 89 262 66 64 180 117 305 139 27 5 126 7 219 6 142 -3 181 -7 240 -26z" /><path d="M2015 3361 c-7 -22 -36 -37 -230 -115 -77 -32 -144 -61 -148 -65 -4 -5 65 -39 155 -76 205 -85 217 -91 228 -118 6 -16 9 -5 9 43 0 53 -2 61 -11 45 -6 -11 -12 -22 -14 -24 -2 -2 -26 5 -54 15 l-50 18 0 77 0 76 43 17 c56 21 66 20 77 -6 6 -17 9 -2 9 55 1 78 -3 93 -14 58z m-138 -258 c-6 -5 -136 47 -142 57 -3 4 28 21 68 37 l72 29 3 -59 c2 -33 1 -61 -1 -64z" /><path d="M1802 2903 c-40 -19 -64 -51 -127 -163 -59 -107 -99 -150 -138 -150 -39 0 -64 15 -82 50 -45 87 21 199 128 216 71 12 37 24 -68 24 -98 0 -134 -10 -84 -23 24 -6 23 -16 -6 -99 -53 -149 77 -285 211 -222 38 18 64 52 143 186 58 98 80 118 131 118 108 -1 136 -150 47 -248 -12 -12 -45 -30 -74 -38 -29 -8 -53 -20 -53 -25 0 -5 47 -9 105 -9 98 0 132 10 85 25 -25 8 -25 9 1 98 16 54 20 85 15 119 -18 122 -133 191 -234 141z" /><path d="M22 2220 c0 -167 1 -180 12 -135 16 63 31 88 70 111 29 18 58 19 436 19 404 0 405 0 464 -24 73 -29 139 -89 174 -156 37 -72 43 -197 13 -276 -29 -75 -88 -141 -159 -176 l-57 -28 -441 -3 c-509 -3 -477 -9 -499 93 -12 55 -13 38 -13 -195 0 -228 1 -249 13 -200 17 77 24 90 52 101 13 5 202 9 418 9 415 0 463 4 546 46 244 122 267 588 37 754 -83 61 -103 63 -558 69 -309 5 -421 9 -437 19 -28 16 -43 43 -58 107 -12 45 -13 32 -13 -135z" /><path d="M1216 1120 c-4 -23 -18 -53 -34 -69 -20 -23 -487 -318 -693 -439 -31 -18 -11 -31 -225 153 -190 163 -206 183 -228 286 -14 62 -14 58 -14 -146 0 -195 2 -210 22 -123 4 15 18 35 31 44 24 15 29 15 71 -1 60 -23 170 -111 318 -255 l121 -117 275 169 c151 93 286 174 299 179 34 14 51 -6 61 -72 5 -36 8 28 9 189 0 133 -1 242 -3 242 -2 0 -6 -18 -10 -40z" /><path d="M21 228 c-1 -146 3 -228 9 -228 6 0 10 13 10 29 0 16 9 39 19 52 l19 24 526 3 c598 3 587 4 606 -67 6 -23 13 -41 15 -41 3 0 4 102 4 228 -1 172 -4 214 -10 172 -18 -108 -24 -110 -294 -110 l-180 0 -64 67 -63 68 51 -61 c28 -34 51 -65 51 -69 0 -3 -142 -5 -315 -3 -363 3 -347 -1 -370 104 -12 54 -13 42 -14 -168z" /></g></g></svg>