<svg width="14" height="14" viewBox="0 0 14 14" fill="none" xmlns="http://www.w3.org/2000/svg">
<path d="M3.91934 4.31121H9.87768C10.0274 4.31121 10.1485 4.19007 10.1485 4.04037C10.1485 3.89067 10.0274 3.76953 9.87768 3.76953H3.91934C3.76963 3.76953 3.6485 3.89067 3.6485 4.04037C3.64852 4.1901 3.76966 4.31121 3.91934 4.31121Z" fill="black"/>
<path d="M7.16934 7.01953H3.91934C3.76963 7.01953 3.6485 7.14067 3.6485 7.29037C3.6485 7.44007 3.76963 7.56121 3.91934 7.56121H7.16934C7.31904 7.56121 7.44018 7.44007 7.44018 7.29037C7.44018 7.14067 7.31904 7.01953 7.16934 7.01953Z" fill="black"/>
<path d="M12.9032 2.14438C12.8875 2.14438 12.8723 2.14831 12.8567 2.14905V2.14438C12.8567 1.54691 12.3706 1.06104 11.7733 1.06104H2.02334C1.42613 1.06104 0.940002 1.54691 0.940002 2.14438V12.7069C0.940002 12.8164 1.00612 12.9153 1.10715 12.9571C1.14049 12.9711 1.17591 12.9777 1.21082 12.9777C1.28118 12.9777 1.35047 12.9502 1.40232 12.8984L4.03131 10.2694H11.7733C12.3706 10.2694 12.8567 9.78353 12.8567 9.18604V4.69388L13.6364 3.91431C13.8294 3.72124 13.94 3.45385 13.94 3.18115C13.94 2.60936 13.475 2.14438 12.9032 2.14438ZM12.315 9.18604C12.315 9.48463 12.0722 9.72769 11.7733 9.72769H3.91916C3.84723 9.72769 3.77844 9.75626 3.72766 9.80704L1.48166 12.0531V2.14438C1.48166 1.84578 1.72447 1.60272 2.02332 1.60272H11.7733C12.0722 1.60272 12.315 1.84578 12.315 2.14438V2.32937C12.2636 2.36472 12.2144 2.40359 12.1701 2.448L9.22323 5.39438H3.91916C3.76946 5.39438 3.64832 5.51552 3.64832 5.66522C3.64832 5.81492 3.76946 5.93606 3.91916 5.93606H8.7887L8.52862 7.23708C8.51065 7.32594 8.53868 7.41773 8.60269 7.48172C8.654 7.53303 8.72329 7.56106 8.79418 7.56106C8.81165 7.56106 8.82963 7.55921 8.84707 7.55578L10.2007 7.28494C10.2536 7.27435 10.3018 7.24871 10.3393 7.21087L12.315 5.23548V9.18604ZM10.0145 6.76997L9.1396 6.94506L9.31469 6.06908L11.7732 3.61056L12.4737 4.31101L10.0145 6.76997ZM13.2534 3.53134L12.8567 3.92807L12.1562 3.22757L12.553 2.83071C12.6451 2.73893 12.7725 2.68604 12.9032 2.68604C13.1761 2.68604 13.3983 2.9082 13.3983 3.18115C13.3983 3.31128 13.3454 3.43905 13.2534 3.53134Z" fill="black"/>
</svg>
