<svg width="21" height="23" viewBox="0 0 21 23" fill="none" xmlns="http://www.w3.org/2000/svg">
<path fill-rule="evenodd" clip-rule="evenodd" d="M16.675 17.473L21.01 21.812L20.313 22.509L15.927 18.119C14.253 19.43 12.15 20.219 9.859 20.219C4.414 20.219 0 15.804 0 10.359C0 4.914 4.414 0.5 9.859 0.5C15.304 0.5 19.719 4.914 19.719 10.359C19.719 13.158 18.547 15.678 16.675 17.473ZM9.859 1.5C4.966 1.5 1 5.466 1 10.359C1 15.252 4.966 19.219 9.859 19.219C14.752 19.219 18.719 15.252 18.719 10.359C18.719 5.466 14.752 1.5 9.859 1.5Z" fill="#252525"/>
</svg>
