<svg width="19" height="19" viewBox="0 0 19 19" fill="none" xmlns="http://www.w3.org/2000/svg">
<path d="M8.55545 1.54716C8.86674 0.651598 10.1333 0.651598 10.4446 1.54716L11.9753 5.95101C12.1127 6.34608 12.4814 6.61395 12.8995 6.62247L17.5609 6.71746C18.5088 6.73678 18.9002 7.94132 18.1446 8.51413L14.4294 11.3309C14.0961 11.5836 13.9552 12.017 14.0764 12.4173L15.4265 16.8799C15.701 17.7874 14.6764 18.5318 13.8981 17.9903L10.0712 15.3273C9.72787 15.0884 9.27215 15.0884 8.92883 15.3273L5.10189 17.9903C4.32365 18.5318 3.299 17.7874 3.57355 16.8799L4.92365 12.4173C5.04476 12.017 4.90393 11.5836 4.57064 11.3309L0.855364 8.51413C0.0998315 7.94132 0.491212 6.73678 1.43914 6.71746L6.10048 6.62247C6.51865 6.61395 6.88734 6.34608 7.02467 5.95101L8.55545 1.54716Z" fill="black"/>
</svg>
